<?xml version="1.0" encoding="utf-8"?>
<!-- simplified crop from provided duck logo for favicon clarity -->
<svg xmlns="http://www.w3.org/2000/svg" viewBox="20 20 90 90">
  <rect x="20" y="20" width="90" height="90" rx="12" fill="#553C51"/>
  <g transform="translate(6,6) scale(0.72)">
    <path fill="#FA5951" d="M108.364,54.546v18.909c0,0.113,0,0.226-0.002,0.338c-0.042,4.484-0.935,8.769-2.524,12.699c-0.451,1.118-0.959,2.206-1.519,3.262c-1.984,3.742-4.629,7.083-7.778,9.864c-1.004,0.887-2.058,1.716-3.159,2.484c-3.916,2.733-8.416,4.684-13.271,5.626c-1.11,0.215-2.239,0.377-3.383,0.484c-1.078,0.102-2.17,0.153-3.273,0.153H54.546c-2.576,0-5.086-0.28-7.504-0.812c-1.208-0.265-2.394-0.594-3.551-0.983c-4.161-1.391-7.976-3.549-11.276-6.303c-0.941-0.784-1.839-1.617-2.691-2.495c-2.591-2.664-4.761-5.741-6.401-9.12c-0.645-1.328-1.208-2.703-1.682-4.118v-0.001c-1.17-3.482-1.802-7.207-1.802-11.078V54.546c0-0.436,0.008-0.872,0.024-1.304c0.143-3.884,0.924-7.608,2.241-11.07c0.429-1.13,0.916-2.233,1.458-3.303c2.023-4.01,4.798-7.578,8.137-10.519c1.004-0.885,2.058-1.713,3.16-2.479h0.001c4.056-2.822,8.736-4.806,13.788-5.699c1.107-0.198,2.232-0.341,3.372-0.429c0.901-0.07,1.81-0.105,2.727-0.105h18.909c2.618,0,5.169,0.29,7.623,0.839c1.21,0.27,2.394,0.604,3.553,0.996c4.176,1.415,8,3.599,11.302,6.385c0.937,0.789,1.833,1.628,2.68,2.512c2.464,2.562,4.542,5.499,6.137,8.715c0.654,1.32,1.229,2.688,1.715,4.097c1.08,3.127,1.727,6.455,1.869,9.909C108.354,53.573,108.364,54.058,108.364,54.546z"/>
    <path fill="#D6BC73" d="M67.152,90.182h-6.303c-12.667,0-23.03-10.364-23.03-23.03v-6.303c0-9.344,5.103-19.027,13.684-21.037c5.005-1.172,10.213,0.213,12.095,5.009h0l0.537-1.058c2.117-4.17,9.293-5.385,13.644-3.669c8.548,3.373,12.404,11.045,12.404,20.754v6.303C90.182,79.818,79.818,90.182,67.152,90.182z"/>
    <circle cx="53" cy="60" r="3.2" fill="#553C51"/>
    <circle cx="72" cy="60" r="3.2" fill="#553C51"/>
  </g>
</svg>
